<?xml version="1.0" standalone="no"?>
<!DOCTYPE svg PUBLIC "-//W3C//DTD SVG 20010904//EN"
 "http://www.w3.org/TR/2001/REC-SVG-20010904/DTD/svg10.dtd">
<svg version="1.0" xmlns="http://www.w3.org/2000/svg"
 width="256.000000pt" height="256.000000pt" viewBox="0 0 256.000000 256.000000"
 preserveAspectRatio="xMidYMid meet">
<metadata>
Created by potrace 1.14, written by Peter Selinger 2001-2017
</metadata>
<g transform="translate(0.000000,256.000000) scale(0.100000,-0.100000)"
fill="#000000" stroke="none">
<path d="M459 2537 c-13 -7 -54 -56 -90 -110 -170 -254 -288 -581 -333 -927
-25 -191 -28 -227 -31 -448 -3 -198 -2 -219 21 -302 43 -161 111 -276 230
-390 167 -159 424 -279 674 -315 24 -4 47 -8 50 -10 10 -6 211 -18 310 -19
537 -1 979 204 1172 544 26 47 64 143 72 182 2 13 9 43 14 67 11 45 9 412 -3
526 -37 374 -101 619 -231 880 -66 132 -174 300 -207 319 -22 14 -58 -6 -206
-112 -249 -178 -343 -275 -387 -400 l-19 -53 -60 6 c-70 8 -272 8 -332 1 -42
-5 -43 -5 -53 32 -27 100 -144 238 -300 353 -69 51 -230 166 -256 181 -5 4
-21 1 -35 -5z m129 -189 c252 -179 351 -291 367 -411 11 -74 22 -80 129 -71
112 9 294 9 401 -1 93 -9 109 1 118 72 13 108 113 221 330 376 75 53 139 97
141 97 3 0 31 -42 62 -92 139 -224 232 -487 278 -783 25 -164 30 -248 31 -495
0 -230 -1 -237 -27 -311 -72 -204 -228 -366 -452 -469 -127 -58 -268 -100
-391 -115 -27 -4 -63 -9 -80 -12 -46 -8 -364 -10 -415 -2 -25 4 -67 10 -95 13
-77 10 -202 42 -285 72 -284 102 -474 276 -557 509 -28 79 -28 82 -28 315 1
225 5 298 26 455 40 302 141 593 289 833 28 45 56 82 61 82 6 0 50 -28 97 -62z"/>
<path d="M760 1443 c-87 -33 -132 -143 -90 -223 34 -66 86 -94 163 -88 62 5
97 27 126 79 60 105 -19 240 -138 238 -25 0 -53 -3 -61 -6z m89 -110 c31 -26
31 -61 0 -85 -20 -15 -30 -17 -51 -9 -46 17 -49 83 -5 101 31 12 32 12 56 -7z"/>
<path d="M1664 1441 c-11 -5 -35 -23 -52 -40 -56 -56 -62 -136 -16 -202 66
-95 208 -93 272 3 48 73 29 166 -45 222 -28 20 -126 31 -159 17z m121 -133
c16 -47 -33 -87 -80 -66 -31 14 -39 38 -24 71 19 42 91 38 104 -5z"/>
<path d="M990 1082 c-32 -5 -60 -30 -60 -53 0 -10 54 -79 120 -153 l120 -135
0 -153 c0 -167 9 -198 54 -198 49 0 56 24 56 184 l0 147 106 127 c58 70 113
137 121 149 22 32 10 71 -24 79 -28 7 -448 12 -493 6z m353 -112 c3 -3 -22
-35 -53 -72 l-58 -67 -61 69 c-34 38 -61 70 -61 72 0 6 228 3 233 -2z"/>
<path d="M359 1008 c-29 -22 -32 -55 -10 -77 12 -12 28 -22 36 -22 8 -1 18 -2
23 -3 4 -1 27 -6 52 -10 63 -12 81 -15 110 -20 264 -51 359 -68 379 -68 31 -1
61 35 54 62 -8 30 -30 40 -118 55 -25 5 -191 36 -270 51 -11 2 -45 8 -75 14
-30 6 -66 12 -80 15 -76 15 -86 15 -101 3z"/>
<path d="M1935 994 c-66 -13 -156 -30 -200 -38 -44 -8 -92 -18 -107 -21 -16
-3 -38 -7 -50 -9 -86 -15 -100 -20 -114 -41 -20 -30 -4 -75 28 -76 29 -2 27
-2 63 4 281 49 533 101 548 114 22 21 22 56 -1 76 -22 20 -17 21 -167 -9z"/>
<path d="M357 788 c-22 -17 -29 -52 -13 -73 7 -9 34 -21 62 -26 27 -6 96 -19
154 -30 58 -11 152 -29 210 -40 204 -39 230 -37 230 21 0 48 31 40 -509 141
-124 23 -113 22 -134 7z"/>
<path d="M2039 796 c-2 -2 -20 -7 -39 -10 -19 -3 -60 -10 -90 -16 -30 -6 -68
-13 -85 -16 -16 -2 -37 -7 -45 -9 -8 -2 -31 -7 -50 -10 -19 -3 -46 -8 -60 -10
-33 -7 -63 -13 -130 -25 -58 -11 -79 -25 -84 -56 -4 -25 22 -54 48 -54 45 -1
572 103 594 116 27 17 29 55 4 77 -17 16 -53 23 -63 13z"/>
</g>
</svg>
